<?xml version="1.0" encoding="UTF-8"?>
<svg id="Layer_2" data-name="Layer 2" xmlns="http://www.w3.org/2000/svg" viewBox="0 0 1000 272.4504">
  <defs>
    <style>
      .cls-1 {
        fill: #fff;
      }
    </style>
  </defs>
  <g id="Layer_1-2" data-name="Layer 1">
    <g>
      <rect class="cls-1" x="178.8179" y="158.4449" width="44.7003" height="113.7409"/>
      <rect class="cls-1" x="223.5183" y="113.7409" width="68.5473" height="44.704"/>
      <rect class="cls-1" x="111.759" y="113.7409" width="67.0589" height="44.704"/>
      <path class="cls-1" d="M134.1134,48.4502c25.2695,8.9088,43.5982,32.525,44.7046,60.5671.0358.8932.0535,1.7864.0535,2.6885,0,.6798-.009,1.3596-.0311,2.0351h44.6645c.0087-.4358.0134-.8711.0134-1.3111v-1.4444c-.2269-36.2616-17.7335-68.423-44.7003-88.6708-12.9966-9.7582-28.1886-16.7431-44.7046-20.0887-7.207-1.4618-14.6629-2.2259-22.2967-2.2259-7.6736,0-15.1696.773-22.4079,2.248-16.5202,3.3636-31.7166,10.3753-44.7046,20.1551C17.6265,42.7891.1154,75.2033.1154,111.7058h-.1154v160.48h44.7043V111.7058h.0624c0-29.1751,18.6309-53.9959,44.6421-63.2156,7.0072-2.4841,14.552-3.8347,22.4079-3.8347,7.8159,0,15.3208,1.3374,22.2967,3.7946Z"/>
      <path class="cls-1" d="M512.9662,106.0979c-14.6737-19.5997-36.3391-31.4315-62.5426-31.4315-50.3161,0-87.7012,42.5261-87.7012,98.7357s37.3851,98.7215,87.7012,98.7215c26.2036,0,47.8689-11.8323,62.5426-31.432v28.5348h39.1346V77.6252h-39.1346v28.4726ZM453.4099,237.1104c-32.0897,0-58.103-28.3488-58.103-63.3188s26.0133-63.3194,58.103-63.3194,58.1035,28.3493,58.1035,63.3194-26.0138,63.3188-58.1035,63.3188Z"/>
      <path class="cls-1" d="M904.9698,74.6664c-54.2957,0-95.0228,42.5393-95.0228,98.7674s40.7271,98.7521,95.0228,98.7521c53.9558,0,95.0302-42.5398,95.0302-98.7521s-41.0743-98.7674-95.0302-98.7674ZM903.2509,236.7447c-32.0897,0-58.1035-28.3488-58.1035-63.3188s26.0138-63.3188,58.1035-63.3188,58.103,28.3488,58.103,63.3188-26.0138,63.3188-58.103,63.3188Z"/>
      <path class="cls-1" d="M632.6496,207.9385V.0985h-40.228v213.2455h.0379c.3831,18.9068,5.9702,33.3955,16.937,43.3244,12.9764,11.7491,34.9144,20.8987,69.7604,12.558v-37.3161c-32.4954,9.6818-46.5073-3.5944-46.5073-23.9719Z"/>
      <path class="cls-1" d="M743.9001,30.4236h-40.228v47.1859h-33.1489v33.8892h33.1489v101.8453h.0374c.3831,18.9068,5.9704,33.3955,16.937,43.3244,12.9764,11.7491,34.9147,20.8987,69.7604,12.558v-37.3161c-32.4952,9.6818-46.5068-3.5944-46.5068-23.9719v-96.4398h46.5068v-33.8892h-46.5068V30.4236Z"/>
    </g>
  </g>
</svg>